# xmcd
#
# Track frame offsets: 
#        150
#        21493
#        38662
#        59853
#        76128
#        91684
#        106386
#        135853
#        151743
#        173255
#        196164
#        211495
#
# Disc length: 3036 seconds
#
# Revision: 0
# Processed by: cddbd v1.5.2PL0 Copyright (c) Steve Scherf et al.
# Submitted via: ExactAudioCopy v1.0b3
#
DISCID=8b0bda0c
DTITLE=Willie Mae Unit - Pampa
DYEAR=2018
DGENRE=Blues
TTITLE0=When It's Good
TTITLE1=Za Dużo Czułości
TTITLE2=Good Morning Sunshine
TTITLE3=Shake That Thing
TTITLE4=Więc Wróć,Gerard
TTITLE5=May You Never
TTITLE6=Buffalo Skinners
TTITLE7=Walk On Boy
TTITLE8=Pampa
TTITLE9=Good Morning Little Schoolgirl
TTITLE10=Comb Back Your Hair,Fair Annie
TTITLE11=Bull Doze Blues
EXTD=
EXTT0=
EXTT1=
EXTT2=
EXTT3=
EXTT4=
EXTT5=
EXTT6=
EXTT7=
EXTT8=
EXTT9=
EXTT10=
EXTT11=
PLAYORDER=
